<svg xmlns="http://www.w3.org/2000/svg" width="32" height="32" id="bed"><path fill="#fecb5b" d="M20 2.5v13.513l1-.576V3.07z"></path><path fill="#d3e4f1" d="M29 18.2V7.646l-10-5.72V12.43z"></path><path fill="#eef2fa" d="M19 6.798 2.007 16.603 2 16.6v5.637l.004-.002L12 28l16.994-9.804.006.004V12.56l-.006.002z"></path><path fill="#f8b545" d="m24.977 11.084-3.035 1.752v1.15l3.035-1.752z"></path><path fill="#3a90cd" d="M20.231 8.35 17.21 10.09v1.15l4.732 2.733v.012l3.035-1.752v-1.151l-.004.002z"></path><path fill="#74c1e6" d="m20.23 8.35-3.021 1.742 4.746 2.738 3.021-1.742z"></path><path fill="#6fb7e6" d="m24.977 11.084-3.035 1.752v1.15l3.035-1.752z"></path><path fill="#fecb5b" d="m20 1.35-1 .577 2 1.144 8 4.575v4.916l-17 9.806-8-4.615v-.03l-.027.015-1.972-1.139v8.635l1 .576 1-.576v-1.848l7 4.04v3l1 .576 1-.577v-3l16-9.23v2.994l1-.578V7.1l-9-5.174z"></path><path fill="#f8b545" d="m20 1.35-1 .577 2 1.144 8 4.575 1-.545-9-5.174zm9 16.844-1 .577v1.841l1 .577zM2 16.6v8.634l1 .577v-3.002l8 4.617v3L12 31v-8.633z"></path></svg>